<?xml version="1.0" encoding="iso-8859-1"?>
<!-- Generator: Adobe Illustrator 19.0.0, SVG Export Plug-In . SVG Version: 6.00 Build 0)  -->
<svg version="1.1" id="Layer_1" xmlns="http://www.w3.org/2000/svg" xmlns:xlink="http://www.w3.org/1999/xlink" x="0px" y="0px"
	 viewBox="0 0 512 512" style="enable-background:new 0 0 512 512;" xml:space="preserve">
<g>
	<g>
		<path class="path" d="M503.56,74.808H396.416c-49.016,0-91.377,29.014-110.831,70.765c-1.137-1.779-2.426-3.449-3.855-4.992
			c0.751-5.865,2.701-17.782,7.276-30.855c10.33-29.516,26.003-42.464,37.333-48.129c4.168-2.085,5.858-7.153,3.774-11.324
			c-2.084-4.169-7.151-5.855-11.324-3.774c-20.36,10.179-36.219,30.261-45.863,58.072c-3.469,10.007-5.552,19.287-6.783,26.248
			c-3.214-0.972-6.618-1.5-10.144-1.5c-3.527,0-6.932,0.529-10.144,1.5c-1.231-6.961-3.313-16.241-6.783-26.248
			c-9.644-27.812-25.503-47.894-45.863-58.072c-4.171-2.086-9.24-0.396-11.324,3.774c-2.084,4.169-0.395,9.239,3.774,11.324
			c20.526,10.263,31.63,31.837,37.333,48.129c4.575,13.072,6.525,24.989,7.276,30.854c-1.429,1.542-2.719,3.213-3.855,4.992
			C206.961,103.82,164.6,74.807,115.584,74.807H8.44c-4.662,0-8.44,3.778-8.44,8.44v33.176c0,4.662,3.778,8.44,8.44,8.44
			c4.662,0,8.44-3.778,8.44-8.44V91.687h98.705c58.073,0,105.32,47.246,105.32,105.32v98.705h-45.723h-52.981
			c-58.074-0.001-105.32-47.247-105.32-105.32v-40.209c0-4.662-3.778-8.44-8.44-8.44c-4.662,0-8.44,3.778-8.44,8.44v40.209
			c0,64.549,50.311,117.562,113.777,121.903c-36.33,21.202-60.796,60.604-60.796,105.616v40.044c0,4.662,3.778,8.44,8.44,8.44
			h54.164c50.445,0,93.846-30.727,112.478-74.445c4.616,20.509,11.417,40.525,20.295,59.488c1.388,2.966,4.368,4.86,7.643,4.86
			s6.255-1.895,7.643-4.86c8.878-18.963,15.68-38.98,20.295-59.488c18.632,43.719,62.034,74.445,112.478,74.445h54.164
			c4.661,0,8.44-3.778,8.44-8.44c0-4.662-3.779-8.44-8.44-8.44h-54.164c-58.073,0-105.32-47.246-105.32-105.32v-16.134V312.59
			h45.723c58.073,0,105.321,47.247,105.321,105.321c0,4.662,3.778,8.44,8.44,8.44c4.661,0,8.44-3.778,8.44-8.44
			c0-45.012-24.467-84.414-60.797-105.616C461.689,307.952,512,254.94,512,190.392V83.247C512,78.585,508.222,74.808,503.56,74.808z
			 M220.904,328.061v16.134c0,58.073-47.246,105.32-105.32,105.32H69.859v-31.604c0-58.073,47.247-105.321,105.321-105.321h45.723
			V328.061z M495.121,190.392c0,58.073-47.246,105.32-105.32,105.32h-52.981h-45.722v-50.985v-0.003c0-4.662-3.779-8.44-8.44-8.44
			c-4.662,0-8.44,3.778-8.44,8.44v0.003v59.425v23.911c0,33.385-6.26,66.971-18.217,98.217
			c-11.957-31.248-18.217-64.833-18.217-98.217v-23.911V197.007v-32.59c0-10.045,8.173-18.216,18.217-18.216
			s18.217,8.172,18.217,18.216v32.59v13.962v0.005c0,4.662,3.778,8.44,8.44,8.44c4.662,0,8.44-3.778,8.44-8.44v-0.005v-13.962
			c0-58.073,47.246-105.32,105.32-105.32h98.703V190.392z"/>
	</g>
</g>
<g>
</g>
<g>
</g>
<g>
</g>
<g>
</g>
<g>
</g>
<g>
</g>
<g>
</g>
<g>
</g>
<g>
</g>
<g>
</g>
<g>
</g>
<g>
</g>
<g>
</g>
<g>
</g>
<g>
</g>
</svg>
